<svg xmlns="http://www.w3.org/2000/svg" xmlns:xlink="http://www.w3.org/1999/xlink" width="600" height="400" viewBox="0 0 2400 1600">
<defs>
  <clipPath id="clip200">
    <rect x="0" y="0" width="2400" height="1600"></rect>
  </clipPath>
</defs>
<path clip-path="url(#clip200)" d="M0 1600 L2400 1600 L2400 0 L0 0  Z" fill="#ffffff" fill-rule="evenodd" fill-opacity="1"></path>
<defs>
  <clipPath id="clip201">
    <rect x="480" y="0" width="1681" height="1600"></rect>
  </clipPath>
</defs>
<path clip-path="url(#clip200)" d="M212.459 1423.18 L2352.76 1423.18 L2352.76 123.472 L212.459 123.472  Z" fill="#ffffff" fill-rule="evenodd" fill-opacity="1"></path>
<defs>
  <clipPath id="clip202">
    <rect x="212" y="123" width="2141" height="1301"></rect>
  </clipPath>
</defs>
<polyline clip-path="url(#clip202)" style="stroke:#000000; stroke-linecap:round; stroke-linejoin:round; stroke-width:2; stroke-opacity:0.1; fill:none" points="273.033,1423.18 273.033,123.472 "></polyline>
<polyline clip-path="url(#clip202)" style="stroke:#000000; stroke-linecap:round; stroke-linejoin:round; stroke-width:2; stroke-opacity:0.1; fill:none" points="676.863,1423.18 676.863,123.472 "></polyline>
<polyline clip-path="url(#clip202)" style="stroke:#000000; stroke-linecap:round; stroke-linejoin:round; stroke-width:2; stroke-opacity:0.1; fill:none" points="1080.69,1423.18 1080.69,123.472 "></polyline>
<polyline clip-path="url(#clip202)" style="stroke:#000000; stroke-linecap:round; stroke-linejoin:round; stroke-width:2; stroke-opacity:0.1; fill:none" points="1484.52,1423.18 1484.52,123.472 "></polyline>
<polyline clip-path="url(#clip202)" style="stroke:#000000; stroke-linecap:round; stroke-linejoin:round; stroke-width:2; stroke-opacity:0.1; fill:none" points="1888.35,1423.18 1888.35,123.472 "></polyline>
<polyline clip-path="url(#clip202)" style="stroke:#000000; stroke-linecap:round; stroke-linejoin:round; stroke-width:2; stroke-opacity:0.1; fill:none" points="2292.18,1423.18 2292.18,123.472 "></polyline>
<polyline clip-path="url(#clip202)" style="stroke:#000000; stroke-linecap:round; stroke-linejoin:round; stroke-width:2; stroke-opacity:0.1; fill:none" points="212.459,1264.75 2352.76,1264.75 "></polyline>
<polyline clip-path="url(#clip202)" style="stroke:#000000; stroke-linecap:round; stroke-linejoin:round; stroke-width:2; stroke-opacity:0.1; fill:none" points="212.459,1019.04 2352.76,1019.04 "></polyline>
<polyline clip-path="url(#clip202)" style="stroke:#000000; stroke-linecap:round; stroke-linejoin:round; stroke-width:2; stroke-opacity:0.1; fill:none" points="212.459,773.326 2352.76,773.326 "></polyline>
<polyline clip-path="url(#clip202)" style="stroke:#000000; stroke-linecap:round; stroke-linejoin:round; stroke-width:2; stroke-opacity:0.1; fill:none" points="212.459,527.613 2352.76,527.613 "></polyline>
<polyline clip-path="url(#clip202)" style="stroke:#000000; stroke-linecap:round; stroke-linejoin:round; stroke-width:2; stroke-opacity:0.1; fill:none" points="212.459,281.901 2352.76,281.901 "></polyline>
<polyline clip-path="url(#clip200)" style="stroke:#000000; stroke-linecap:round; stroke-linejoin:round; stroke-width:4; stroke-opacity:1; fill:none" points="212.459,1423.18 2352.76,1423.18 "></polyline>
<polyline clip-path="url(#clip200)" style="stroke:#000000; stroke-linecap:round; stroke-linejoin:round; stroke-width:4; stroke-opacity:1; fill:none" points="273.033,1423.18 273.033,1404.28 "></polyline>
<polyline clip-path="url(#clip200)" style="stroke:#000000; stroke-linecap:round; stroke-linejoin:round; stroke-width:4; stroke-opacity:1; fill:none" points="676.863,1423.18 676.863,1404.28 "></polyline>
<polyline clip-path="url(#clip200)" style="stroke:#000000; stroke-linecap:round; stroke-linejoin:round; stroke-width:4; stroke-opacity:1; fill:none" points="1080.69,1423.18 1080.69,1404.28 "></polyline>
<polyline clip-path="url(#clip200)" style="stroke:#000000; stroke-linecap:round; stroke-linejoin:round; stroke-width:4; stroke-opacity:1; fill:none" points="1484.52,1423.18 1484.52,1404.28 "></polyline>
<polyline clip-path="url(#clip200)" style="stroke:#000000; stroke-linecap:round; stroke-linejoin:round; stroke-width:4; stroke-opacity:1; fill:none" points="1888.35,1423.18 1888.35,1404.28 "></polyline>
<polyline clip-path="url(#clip200)" style="stroke:#000000; stroke-linecap:round; stroke-linejoin:round; stroke-width:4; stroke-opacity:1; fill:none" points="2292.18,1423.18 2292.18,1404.28 "></polyline>
<path clip-path="url(#clip200)" d="M273.033 1454.1 Q269.422 1454.1 267.594 1457.66 Q265.788 1461.2 265.788 1468.33 Q265.788 1475.44 267.594 1479.01 Q269.422 1482.55 273.033 1482.55 Q276.668 1482.55 278.473 1479.01 Q280.302 1475.44 280.302 1468.33 Q280.302 1461.2 278.473 1457.66 Q276.668 1454.1 273.033 1454.1 M273.033 1450.39 Q278.843 1450.39 281.899 1455 Q284.978 1459.58 284.978 1468.33 Q284.978 1477.06 281.899 1481.67 Q278.843 1486.25 273.033 1486.25 Q267.223 1486.25 264.145 1481.67 Q261.089 1477.06 261.089 1468.33 Q261.089 1459.58 264.145 1455 Q267.223 1450.39 273.033 1450.39 Z" fill="#000000" fill-rule="nonzero" fill-opacity="1"></path><path clip-path="url(#clip200)" d="M651.551 1481.64 L659.189 1481.64 L659.189 1455.28 L650.879 1456.95 L650.879 1452.69 L659.143 1451.02 L663.819 1451.02 L663.819 1481.64 L671.458 1481.64 L671.458 1485.58 L651.551 1485.58 L651.551 1481.64 Z" fill="#000000" fill-rule="nonzero" fill-opacity="1"></path><path clip-path="url(#clip200)" d="M690.902 1454.1 Q687.291 1454.1 685.462 1457.66 Q683.657 1461.2 683.657 1468.33 Q683.657 1475.44 685.462 1479.01 Q687.291 1482.55 690.902 1482.55 Q694.536 1482.55 696.342 1479.01 Q698.171 1475.44 698.171 1468.33 Q698.171 1461.2 696.342 1457.66 Q694.536 1454.1 690.902 1454.1 M690.902 1450.39 Q696.712 1450.39 699.768 1455 Q702.847 1459.58 702.847 1468.33 Q702.847 1477.06 699.768 1481.67 Q696.712 1486.25 690.902 1486.25 Q685.092 1486.25 682.013 1481.67 Q678.958 1477.06 678.958 1468.33 Q678.958 1459.58 682.013 1455 Q685.092 1450.39 690.902 1450.39 Z" fill="#000000" fill-rule="nonzero" fill-opacity="1"></path><path clip-path="url(#clip200)" d="M1059.47 1481.64 L1075.79 1481.64 L1075.79 1485.58 L1053.84 1485.58 L1053.84 1481.64 Q1056.5 1478.89 1061.09 1474.26 Q1065.69 1469.61 1066.87 1468.27 Q1069.12 1465.74 1070 1464.01 Q1070.9 1462.25 1070.9 1460.56 Q1070.9 1457.8 1068.96 1456.07 Q1067.04 1454.33 1063.93 1454.33 Q1061.73 1454.33 1059.28 1455.09 Q1056.85 1455.86 1054.07 1457.41 L1054.07 1452.69 Q1056.9 1451.55 1059.35 1450.97 Q1061.8 1450.39 1063.84 1450.39 Q1069.21 1450.39 1072.41 1453.08 Q1075.6 1455.77 1075.6 1460.26 Q1075.6 1462.39 1074.79 1464.31 Q1074 1466.2 1071.9 1468.8 Q1071.32 1469.47 1068.22 1472.69 Q1065.11 1475.88 1059.47 1481.64 Z" fill="#000000" fill-rule="nonzero" fill-opacity="1"></path><path clip-path="url(#clip200)" d="M1095.6 1454.1 Q1091.99 1454.1 1090.16 1457.66 Q1088.35 1461.2 1088.35 1468.33 Q1088.35 1475.44 1090.16 1479.01 Q1091.99 1482.55 1095.6 1482.55 Q1099.23 1482.55 1101.04 1479.01 Q1102.87 1475.44 1102.87 1468.33 Q1102.87 1461.2 1101.04 1457.66 Q1099.23 1454.1 1095.6 1454.1 M1095.6 1450.39 Q1101.41 1450.39 1104.47 1455 Q1107.54 1459.58 1107.54 1468.33 Q1107.54 1477.06 1104.47 1481.67 Q1101.41 1486.25 1095.6 1486.25 Q1089.79 1486.25 1086.71 1481.67 Q1083.66 1477.06 1083.66 1468.33 Q1083.66 1459.58 1086.71 1455 Q1089.79 1450.39 1095.6 1450.39 Z" fill="#000000" fill-rule="nonzero" fill-opacity="1"></path><path clip-path="url(#clip200)" d="M1473.36 1466.95 Q1476.72 1467.66 1478.6 1469.93 Q1480.49 1472.2 1480.49 1475.53 Q1480.49 1480.65 1476.98 1483.45 Q1473.46 1486.25 1466.98 1486.25 Q1464.8 1486.25 1462.49 1485.81 Q1460.19 1485.39 1457.74 1484.54 L1457.74 1480.02 Q1459.68 1481.16 1462 1481.74 Q1464.31 1482.32 1466.84 1482.32 Q1471.24 1482.32 1473.53 1480.58 Q1475.84 1478.84 1475.84 1475.53 Q1475.84 1472.48 1473.69 1470.77 Q1471.56 1469.03 1467.74 1469.03 L1463.71 1469.03 L1463.71 1465.19 L1467.93 1465.19 Q1471.37 1465.19 1473.2 1463.82 Q1475.03 1462.43 1475.03 1459.84 Q1475.03 1457.18 1473.13 1455.77 Q1471.26 1454.33 1467.74 1454.33 Q1465.82 1454.33 1463.62 1454.75 Q1461.42 1455.16 1458.78 1456.04 L1458.78 1451.88 Q1461.44 1451.14 1463.76 1450.77 Q1466.1 1450.39 1468.16 1450.39 Q1473.48 1450.39 1476.58 1452.83 Q1479.68 1455.23 1479.68 1459.35 Q1479.68 1462.22 1478.04 1464.21 Q1476.4 1466.18 1473.36 1466.95 Z" fill="#000000" fill-rule="nonzero" fill-opacity="1"></path><path clip-path="url(#clip200)" d="M1499.36 1454.1 Q1495.75 1454.1 1493.92 1457.66 Q1492.11 1461.2 1492.11 1468.33 Q1492.11 1475.44 1493.92 1479.01 Q1495.75 1482.55 1499.36 1482.55 Q1502.99 1482.55 1504.8 1479.01 Q1506.63 1475.44 1506.63 1468.33 Q1506.63 1461.2 1504.8 1457.66 Q1502.99 1454.1 1499.36 1454.1 M1499.36 1450.39 Q1505.17 1450.39 1508.23 1455 Q1511.3 1459.58 1511.3 1468.33 Q1511.3 1477.06 1508.23 1481.67 Q1505.17 1486.25 1499.36 1486.25 Q1493.55 1486.25 1490.47 1481.67 Q1487.42 1477.06 1487.42 1468.33 Q1487.42 1459.58 1490.47 1455 Q1493.55 1450.39 1499.36 1450.39 Z" fill="#000000" fill-rule="nonzero" fill-opacity="1"></path><path clip-path="url(#clip200)" d="M1876.52 1455.09 L1864.72 1473.54 L1876.52 1473.54 L1876.52 1455.09 M1875.3 1451.02 L1881.18 1451.02 L1881.18 1473.54 L1886.11 1473.54 L1886.11 1477.43 L1881.18 1477.43 L1881.18 1485.58 L1876.52 1485.58 L1876.52 1477.43 L1860.92 1477.43 L1860.92 1472.92 L1875.3 1451.02 Z" fill="#000000" fill-rule="nonzero" fill-opacity="1"></path><path clip-path="url(#clip200)" d="M1903.84 1454.1 Q1900.23 1454.1 1898.4 1457.66 Q1896.59 1461.2 1896.59 1468.33 Q1896.59 1475.44 1898.4 1479.01 Q1900.23 1482.55 1903.84 1482.55 Q1907.47 1482.55 1909.28 1479.01 Q1911.11 1475.44 1911.11 1468.33 Q1911.11 1461.2 1909.28 1457.66 Q1907.47 1454.1 1903.84 1454.1 M1903.84 1450.39 Q1909.65 1450.39 1912.7 1455 Q1915.78 1459.58 1915.78 1468.33 Q1915.78 1477.06 1912.7 1481.67 Q1909.65 1486.25 1903.84 1486.25 Q1898.03 1486.25 1894.95 1481.67 Q1891.89 1477.06 1891.89 1468.33 Q1891.89 1459.58 1894.95 1455 Q1898.03 1450.39 1903.84 1450.39 Z" fill="#000000" fill-rule="nonzero" fill-opacity="1"></path><path clip-path="url(#clip200)" d="M2266.88 1451.02 L2285.24 1451.02 L2285.24 1454.96 L2271.16 1454.96 L2271.16 1463.43 Q2272.18 1463.08 2273.2 1462.92 Q2274.22 1462.73 2275.24 1462.73 Q2281.02 1462.73 2284.4 1465.9 Q2287.78 1469.08 2287.78 1474.49 Q2287.78 1480.07 2284.31 1483.17 Q2280.84 1486.25 2274.52 1486.25 Q2272.34 1486.25 2270.08 1485.88 Q2267.83 1485.51 2265.42 1484.77 L2265.42 1480.07 Q2267.51 1481.2 2269.73 1481.76 Q2271.95 1482.32 2274.43 1482.32 Q2278.43 1482.32 2280.77 1480.21 Q2283.11 1478.1 2283.11 1474.49 Q2283.11 1470.88 2280.77 1468.77 Q2278.43 1466.67 2274.43 1466.67 Q2272.55 1466.67 2270.68 1467.08 Q2268.83 1467.5 2266.88 1468.38 L2266.88 1451.02 Z" fill="#000000" fill-rule="nonzero" fill-opacity="1"></path><path clip-path="url(#clip200)" d="M2307 1454.1 Q2303.39 1454.1 2301.56 1457.66 Q2299.75 1461.2 2299.75 1468.33 Q2299.75 1475.44 2301.56 1479.01 Q2303.39 1482.55 2307 1482.55 Q2310.63 1482.55 2312.44 1479.01 Q2314.26 1475.44 2314.26 1468.33 Q2314.26 1461.2 2312.44 1457.66 Q2310.63 1454.1 2307 1454.1 M2307 1450.39 Q2312.81 1450.39 2315.86 1455 Q2318.94 1459.58 2318.94 1468.33 Q2318.94 1477.06 2315.86 1481.67 Q2312.81 1486.25 2307 1486.25 Q2301.19 1486.25 2298.11 1481.67 Q2295.05 1477.06 2295.05 1468.33 Q2295.05 1459.58 2298.11 1455 Q2301.19 1450.39 2307 1450.39 Z" fill="#000000" fill-rule="nonzero" fill-opacity="1"></path><path clip-path="url(#clip200)" d="M1297.53 1546.53 L1297.53 1568.04 L1291.68 1568.04 L1291.68 1546.72 Q1291.68 1541.66 1289.71 1539.14 Q1287.73 1536.63 1283.79 1536.63 Q1279.04 1536.63 1276.31 1539.65 Q1273.57 1542.68 1273.57 1547.9 L1273.57 1568.04 L1267.68 1568.04 L1267.68 1532.4 L1273.57 1532.4 L1273.57 1537.93 Q1275.67 1534.72 1278.5 1533.13 Q1281.37 1531.54 1285.09 1531.54 Q1291.23 1531.54 1294.38 1535.36 Q1297.53 1539.14 1297.53 1546.53 Z" fill="#000000" fill-rule="nonzero" fill-opacity="1"></path><polyline clip-path="url(#clip200)" style="stroke:#000000; stroke-linecap:round; stroke-linejoin:round; stroke-width:4; stroke-opacity:1; fill:none" points="212.459,1423.18 212.459,123.472 "></polyline>
<polyline clip-path="url(#clip200)" style="stroke:#000000; stroke-linecap:round; stroke-linejoin:round; stroke-width:4; stroke-opacity:1; fill:none" points="212.459,1264.75 231.357,1264.75 "></polyline>
<polyline clip-path="url(#clip200)" style="stroke:#000000; stroke-linecap:round; stroke-linejoin:round; stroke-width:4; stroke-opacity:1; fill:none" points="212.459,1019.04 231.357,1019.04 "></polyline>
<polyline clip-path="url(#clip200)" style="stroke:#000000; stroke-linecap:round; stroke-linejoin:round; stroke-width:4; stroke-opacity:1; fill:none" points="212.459,773.326 231.357,773.326 "></polyline>
<polyline clip-path="url(#clip200)" style="stroke:#000000; stroke-linecap:round; stroke-linejoin:round; stroke-width:4; stroke-opacity:1; fill:none" points="212.459,527.613 231.357,527.613 "></polyline>
<polyline clip-path="url(#clip200)" style="stroke:#000000; stroke-linecap:round; stroke-linejoin:round; stroke-width:4; stroke-opacity:1; fill:none" points="212.459,281.901 231.357,281.901 "></polyline>
<path clip-path="url(#clip200)" d="M114.26 1265.2 L143.936 1265.2 L143.936 1269.14 L114.26 1269.14 L114.26 1265.2 Z" fill="#000000" fill-rule="nonzero" fill-opacity="1"></path><path clip-path="url(#clip200)" d="M166.876 1251.55 L155.07 1269.99 L166.876 1269.99 L166.876 1251.55 M165.649 1247.47 L171.528 1247.47 L171.528 1269.99 L176.459 1269.99 L176.459 1273.88 L171.528 1273.88 L171.528 1282.03 L166.876 1282.03 L166.876 1273.88 L151.274 1273.88 L151.274 1269.37 L165.649 1247.47 Z" fill="#000000" fill-rule="nonzero" fill-opacity="1"></path><path clip-path="url(#clip200)" d="M116.343 1019.49 L146.019 1019.49 L146.019 1023.43 L116.343 1023.43 L116.343 1019.49 Z" fill="#000000" fill-rule="nonzero" fill-opacity="1"></path><path clip-path="url(#clip200)" d="M160.14 1032.38 L176.459 1032.38 L176.459 1036.32 L154.515 1036.32 L154.515 1032.38 Q157.177 1029.63 161.76 1025 Q166.366 1020.35 167.547 1019 Q169.792 1016.48 170.672 1014.74 Q171.575 1012.99 171.575 1011.3 Q171.575 1008.54 169.63 1006.8 Q167.709 1005.07 164.607 1005.07 Q162.408 1005.07 159.954 1005.83 Q157.524 1006.6 154.746 1008.15 L154.746 1003.43 Q157.57 1002.29 160.024 1001.71 Q162.477 1001.13 164.515 1001.13 Q169.885 1001.13 173.079 1003.82 Q176.274 1006.5 176.274 1010.99 Q176.274 1013.12 175.464 1015.05 Q174.677 1016.94 172.57 1019.54 Q171.991 1020.21 168.889 1023.43 Q165.788 1026.62 160.14 1032.38 Z" fill="#000000" fill-rule="nonzero" fill-opacity="1"></path><path clip-path="url(#clip200)" d="M164.515 759.125 Q160.903 759.125 159.075 762.689 Q157.269 766.231 157.269 773.361 Q157.269 780.467 159.075 784.032 Q160.903 787.574 164.515 787.574 Q168.149 787.574 169.954 784.032 Q171.783 780.467 171.783 773.361 Q171.783 766.231 169.954 762.689 Q168.149 759.125 164.515 759.125 M164.515 755.421 Q170.325 755.421 173.38 760.027 Q176.459 764.611 176.459 773.361 Q176.459 782.088 173.38 786.694 Q170.325 791.277 164.515 791.277 Q158.704 791.277 155.626 786.694 Q152.57 782.088 152.57 773.361 Q152.57 764.611 155.626 760.027 Q158.704 755.421 164.515 755.421 Z" fill="#000000" fill-rule="nonzero" fill-opacity="1"></path><path clip-path="url(#clip200)" d="M160.14 540.958 L176.459 540.958 L176.459 544.893 L154.515 544.893 L154.515 540.958 Q157.177 538.203 161.76 533.574 Q166.366 528.921 167.547 527.579 Q169.792 525.055 170.672 523.319 Q171.575 521.56 171.575 519.87 Q171.575 517.116 169.63 515.38 Q167.709 513.643 164.607 513.643 Q162.408 513.643 159.954 514.407 Q157.524 515.171 154.746 516.722 L154.746 512 Q157.57 510.866 160.024 510.287 Q162.477 509.708 164.515 509.708 Q169.885 509.708 173.079 512.393 Q176.274 515.079 176.274 519.569 Q176.274 521.699 175.464 523.62 Q174.677 525.518 172.57 528.111 Q171.991 528.782 168.889 532 Q165.788 535.194 160.14 540.958 Z" fill="#000000" fill-rule="nonzero" fill-opacity="1"></path><path clip-path="url(#clip200)" d="M166.876 268.695 L155.07 287.144 L166.876 287.144 L166.876 268.695 M165.649 264.621 L171.528 264.621 L171.528 287.144 L176.459 287.144 L176.459 291.032 L171.528 291.032 L171.528 299.181 L166.876 299.181 L166.876 291.032 L151.274 291.032 L151.274 286.519 L165.649 264.621 Z" fill="#000000" fill-rule="nonzero" fill-opacity="1"></path><path clip-path="url(#clip200)" d="M22.818 916.586 L46.4666 925.307 L46.4666 907.833 L22.818 916.586 M16.4842 920.215 L16.4842 912.926 L64.0042 894.815 L64.0042 901.499 L51.8138 905.828 L51.8138 927.249 L64.0042 931.577 L64.0042 938.357 L16.4842 920.215 Z" fill="#000000" fill-rule="nonzero" fill-opacity="1"></path><path clip-path="url(#clip200)" d="M35.1993 860.377 Q31.2526 858.181 29.3747 855.125 Q27.4968 852.07 27.4968 847.932 Q27.4968 842.362 31.4117 839.338 Q35.2948 836.315 42.4881 836.315 L64.0042 836.315 L64.0042 842.203 L42.679 842.203 Q37.5546 842.203 35.072 844.017 Q32.5894 845.831 32.5894 849.555 Q32.5894 854.107 35.6131 856.749 Q38.6368 859.39 43.8567 859.39 L64.0042 859.39 L64.0042 865.279 L42.679 865.279 Q37.5228 865.279 35.072 867.093 Q32.5894 868.907 32.5894 872.695 Q32.5894 877.182 35.6449 879.824 Q38.6686 882.466 43.8567 882.466 L64.0042 882.466 L64.0042 888.354 L28.3562 888.354 L28.3562 882.466 L33.8944 882.466 Q30.616 880.461 29.0564 877.66 Q27.4968 874.859 27.4968 871.008 Q27.4968 867.125 29.4702 864.419 Q31.4436 861.682 35.1993 860.377 Z" fill="#000000" fill-rule="nonzero" fill-opacity="1"></path><path clip-path="url(#clip200)" d="M58.657 818.968 L77.5631 818.968 L77.5631 824.856 L28.3562 824.856 L28.3562 818.968 L33.7671 818.968 Q30.5842 817.122 29.0564 814.321 Q27.4968 811.488 27.4968 807.573 Q27.4968 801.08 32.6531 797.038 Q37.8093 792.964 46.212 792.964 Q54.6147 792.964 59.771 797.038 Q64.9272 801.08 64.9272 807.573 Q64.9272 811.488 63.3994 814.321 Q61.8398 817.122 58.657 818.968 M46.212 799.043 Q39.7508 799.043 36.0905 801.717 Q32.3984 804.359 32.3984 809.006 Q32.3984 813.653 36.0905 816.326 Q39.7508 818.968 46.212 818.968 Q52.6732 818.968 56.3653 816.326 Q60.0256 813.653 60.0256 809.006 Q60.0256 804.359 56.3653 801.717 Q52.6732 799.043 46.212 799.043 Z" fill="#000000" fill-rule="nonzero" fill-opacity="1"></path><path clip-path="url(#clip200)" d="M14.479 783.256 L14.479 777.4 L64.0042 777.4 L64.0042 783.256 L14.479 783.256 Z" fill="#000000" fill-rule="nonzero" fill-opacity="1"></path><path clip-path="url(#clip200)" d="M28.3562 765.146 L28.3562 759.29 L64.0042 759.29 L64.0042 765.146 L28.3562 765.146 M14.479 765.146 L14.479 759.29 L21.895 759.29 L21.895 765.146 L14.479 765.146 Z" fill="#000000" fill-rule="nonzero" fill-opacity="1"></path><path clip-path="url(#clip200)" d="M18.2347 741.243 L28.3562 741.243 L28.3562 729.18 L32.9077 729.18 L32.9077 741.243 L52.2594 741.243 Q56.6199 741.243 57.8613 740.065 Q59.1026 738.856 59.1026 735.195 L59.1026 729.18 L64.0042 729.18 L64.0042 735.195 Q64.0042 741.975 61.4897 744.553 Q58.9434 747.131 52.2594 747.131 L32.9077 747.131 L32.9077 751.428 L28.3562 751.428 L28.3562 747.131 L18.2347 747.131 L18.2347 741.243 Z" fill="#000000" fill-rule="nonzero" fill-opacity="1"></path><path clip-path="url(#clip200)" d="M49.9359 722.082 L28.3562 722.082 L28.3562 716.226 L49.7131 716.226 Q54.7739 716.226 57.3202 714.252 Q59.8346 712.279 59.8346 708.332 Q59.8346 703.59 56.8109 700.852 Q53.7872 698.083 48.5673 698.083 L28.3562 698.083 L28.3562 692.227 L64.0042 692.227 L64.0042 698.083 L58.5296 698.083 Q61.7762 700.216 63.3676 703.049 Q64.9272 705.849 64.9272 709.573 Q64.9272 715.716 61.1078 718.899 Q57.2883 722.082 49.9359 722.082 M27.4968 707.345 L27.4968 707.345 Z" fill="#000000" fill-rule="nonzero" fill-opacity="1"></path><path clip-path="url(#clip200)" d="M33.7671 656.706 L14.479 656.706 L14.479 650.85 L64.0042 650.85 L64.0042 656.706 L58.657 656.706 Q61.8398 658.552 63.3994 661.385 Q64.9272 664.186 64.9272 668.133 Q64.9272 674.594 59.771 678.668 Q54.6147 682.71 46.212 682.71 Q37.8093 682.71 32.6531 678.668 Q27.4968 674.594 27.4968 668.133 Q27.4968 664.186 29.0564 661.385 Q30.5842 658.552 33.7671 656.706 M46.212 676.663 Q52.6732 676.663 56.3653 674.021 Q60.0256 671.347 60.0256 666.7 Q60.0256 662.053 56.3653 659.38 Q52.6732 656.706 46.212 656.706 Q39.7508 656.706 36.0905 659.38 Q32.3984 662.053 32.3984 666.7 Q32.3984 671.347 36.0905 674.021 Q39.7508 676.663 46.212 676.663 Z" fill="#000000" fill-rule="nonzero" fill-opacity="1"></path><path clip-path="url(#clip200)" d="M44.7161 608.295 L47.5806 608.295 L47.5806 635.222 Q53.6281 634.84 56.8109 631.594 Q59.9619 628.315 59.9619 622.491 Q59.9619 619.117 59.1344 615.966 Q58.3069 612.783 56.6518 609.664 L62.1899 609.664 Q63.5267 612.815 64.227 616.125 Q64.9272 619.435 64.9272 622.841 Q64.9272 631.371 59.9619 636.368 Q54.9967 641.333 46.5303 641.333 Q37.7774 641.333 32.6531 636.622 Q27.4968 631.88 27.4968 623.859 Q27.4968 616.666 32.1438 612.496 Q36.7589 608.295 44.7161 608.295 M42.9973 614.151 Q38.1912 614.215 35.3266 616.857 Q32.4621 619.467 32.4621 623.796 Q32.4621 628.697 35.2312 631.657 Q38.0002 634.585 43.0292 635.031 L42.9973 614.151 Z" fill="#000000" fill-rule="nonzero" fill-opacity="1"></path><path clip-path="url(#clip200)" d="M986.81 18.8205 L986.81 65.8515 L996.695 65.8515 Q1009.21 65.8515 1015 60.1802 Q1020.84 54.509 1020.84 42.2752 Q1020.84 30.1225 1015 24.4918 Q1009.21 18.8205 996.695 18.8205 L986.81 18.8205 M978.628 12.096 L995.439 12.096 Q1013.02 12.096 1021.24 19.4281 Q1029.47 26.7198 1029.47 42.2752 Q1029.47 57.9117 1021.2 65.2439 Q1012.94 72.576 995.439 72.576 L978.628 72.576 L978.628 12.096 Z" fill="#000000" fill-rule="nonzero" fill-opacity="1"></path><path clip-path="url(#clip200)" d="M1042.19 27.2059 L1049.64 27.2059 L1049.64 72.576 L1042.19 72.576 L1042.19 27.2059 M1042.19 9.54393 L1049.64 9.54393 L1049.64 18.9825 L1042.19 18.9825 L1042.19 9.54393 Z" fill="#000000" fill-rule="nonzero" fill-opacity="1"></path><path clip-path="url(#clip200)" d="M1094.16 28.5427 L1094.16 35.5912 Q1091 33.9709 1087.6 33.1607 Q1084.19 32.3505 1080.55 32.3505 Q1075 32.3505 1072.2 34.0519 Q1069.45 35.7533 1069.45 39.156 Q1069.45 41.7486 1071.43 43.2475 Q1073.42 44.7058 1079.41 46.0426 L1081.97 46.6097 Q1089.91 48.3111 1093.23 51.4303 Q1096.59 54.509 1096.59 60.0587 Q1096.59 66.3781 1091.57 70.0644 Q1086.58 73.7508 1077.83 73.7508 Q1074.19 73.7508 1070.22 73.0216 Q1066.29 72.3329 1061.91 70.9151 L1061.91 63.2184 Q1066.05 65.3654 1070.06 66.4591 Q1074.07 67.5124 1078 67.5124 Q1083.26 67.5124 1086.1 65.73 Q1088.93 63.9071 1088.93 60.6258 Q1088.93 57.5877 1086.87 55.9673 Q1084.84 54.3469 1077.92 52.8481 L1075.32 52.2405 Q1068.4 50.7821 1065.32 47.7845 Q1062.24 44.7463 1062.24 39.4801 Q1062.24 33.0797 1066.78 29.5959 Q1071.31 26.1121 1079.66 26.1121 Q1083.79 26.1121 1087.43 26.7198 Q1091.08 27.3274 1094.16 28.5427 Z" fill="#000000" fill-rule="nonzero" fill-opacity="1"></path><path clip-path="url(#clip200)" d="M1141.11 28.9478 L1141.11 35.9153 Q1137.95 34.1734 1134.75 33.3227 Q1131.59 32.4315 1128.35 32.4315 Q1121.1 32.4315 1117.09 37.0496 Q1113.08 41.6271 1113.08 49.9314 Q1113.08 58.2358 1117.09 62.8538 Q1121.1 67.4314 1128.35 67.4314 Q1131.59 67.4314 1134.75 66.5807 Q1137.95 65.6895 1141.11 63.9476 L1141.11 70.8341 Q1137.99 72.2924 1134.63 73.0216 Q1131.31 73.7508 1127.54 73.7508 Q1117.29 73.7508 1111.25 67.3098 Q1105.22 60.8689 1105.22 49.9314 Q1105.22 38.832 1111.29 32.472 Q1117.41 26.1121 1128.02 26.1121 Q1131.47 26.1121 1134.75 26.8413 Q1138.03 27.5299 1141.11 28.9478 Z" fill="#000000" fill-rule="nonzero" fill-opacity="1"></path><path clip-path="url(#clip200)" d="M1180.36 34.1734 Q1179.11 33.4443 1177.61 33.1202 Q1176.15 32.7556 1174.37 32.7556 Q1168.05 32.7556 1164.65 36.8875 Q1161.28 40.9789 1161.28 48.6757 L1161.28 72.576 L1153.79 72.576 L1153.79 27.2059 L1161.28 27.2059 L1161.28 34.2544 Q1163.63 30.1225 1167.4 28.1376 Q1171.17 26.1121 1176.55 26.1121 Q1177.32 26.1121 1178.26 26.2337 Q1179.19 26.3147 1180.32 26.5172 L1180.36 34.1734 Z" fill="#000000" fill-rule="nonzero" fill-opacity="1"></path><path clip-path="url(#clip200)" d="M1225.17 48.0275 L1225.17 51.6733 L1190.89 51.6733 Q1191.38 59.3701 1195.51 63.421 Q1199.69 67.4314 1207.1 67.4314 Q1211.39 67.4314 1215.4 66.3781 Q1219.45 65.3249 1223.42 63.2184 L1223.42 70.267 Q1219.41 71.9684 1215.2 72.8596 Q1210.99 73.7508 1206.65 73.7508 Q1195.8 73.7508 1189.44 67.4314 Q1183.12 61.1119 1183.12 50.3365 Q1183.12 39.1965 1189.11 32.6746 Q1195.15 26.1121 1205.36 26.1121 Q1214.51 26.1121 1219.82 32.0264 Q1225.17 37.9003 1225.17 48.0275 M1217.71 45.84 Q1217.63 39.7232 1214.27 36.0774 Q1210.95 32.4315 1205.44 32.4315 Q1199.2 32.4315 1195.43 35.9558 Q1191.71 39.4801 1191.14 45.8805 L1217.71 45.84 Z" fill="#000000" fill-rule="nonzero" fill-opacity="1"></path><path clip-path="url(#clip200)" d="M1244.77 14.324 L1244.77 27.2059 L1260.12 27.2059 L1260.12 32.9987 L1244.77 32.9987 L1244.77 57.6282 Q1244.77 63.1779 1246.27 64.7578 Q1247.81 66.3376 1252.47 66.3376 L1260.12 66.3376 L1260.12 72.576 L1252.47 72.576 Q1243.84 72.576 1240.56 69.3758 Q1237.28 66.1351 1237.28 57.6282 L1237.28 32.9987 L1231.81 32.9987 L1231.81 27.2059 L1237.28 27.2059 L1237.28 14.324 L1244.77 14.324 Z" fill="#000000" fill-rule="nonzero" fill-opacity="1"></path><path clip-path="url(#clip200)" d="M1308.74 48.0275 L1308.74 51.6733 L1274.47 51.6733 Q1274.95 59.3701 1279.08 63.421 Q1283.26 67.4314 1290.67 67.4314 Q1294.96 67.4314 1298.97 66.3781 Q1303.02 65.3249 1306.99 63.2184 L1306.99 70.267 Q1302.98 71.9684 1298.77 72.8596 Q1294.56 73.7508 1290.22 73.7508 Q1279.37 73.7508 1273.01 67.4314 Q1266.69 61.1119 1266.69 50.3365 Q1266.69 39.1965 1272.68 32.6746 Q1278.72 26.1121 1288.93 26.1121 Q1298.08 26.1121 1303.39 32.0264 Q1308.74 37.9003 1308.74 48.0275 M1301.28 45.84 Q1301.2 39.7232 1297.84 36.0774 Q1294.52 32.4315 1289.01 32.4315 Q1282.77 32.4315 1279 35.9558 Q1275.28 39.4801 1274.71 45.8805 L1301.28 45.84 Z" fill="#000000" fill-rule="nonzero" fill-opacity="1"></path><path clip-path="url(#clip200)" d="M1383.92 14.0809 L1383.92 22.0612 Q1379.26 19.8332 1375.13 18.7395 Q1371 17.6457 1367.15 17.6457 Q1360.47 17.6457 1356.82 20.2383 Q1353.21 22.8309 1353.21 27.611 Q1353.21 31.6214 1355.6 33.6873 Q1358.04 35.7128 1364.76 36.9686 L1369.7 37.9813 Q1378.86 39.7232 1383.19 44.1387 Q1387.57 48.5136 1387.57 55.8863 Q1387.57 64.6767 1381.65 69.2137 Q1375.78 73.7508 1364.4 73.7508 Q1360.1 73.7508 1355.24 72.7785 Q1350.42 71.8063 1345.23 69.9024 L1345.23 61.4765 Q1350.22 64.2716 1355 65.6895 Q1359.78 67.1073 1364.4 67.1073 Q1371.4 67.1073 1375.21 64.3527 Q1379.02 61.598 1379.02 56.4939 Q1379.02 52.0379 1376.26 49.5264 Q1373.55 47.0148 1367.31 45.759 L1362.33 44.7868 Q1353.17 42.9639 1349.08 39.075 Q1344.99 35.1862 1344.99 28.2591 Q1344.99 20.2383 1350.62 15.6203 Q1356.29 11.0023 1366.22 11.0023 Q1370.47 11.0023 1374.89 11.7719 Q1379.3 12.5416 1383.92 14.0809 Z" fill="#000000" fill-rule="nonzero" fill-opacity="1"></path><path clip-path="url(#clip200)" d="M1400 27.2059 L1407.46 27.2059 L1407.46 72.576 L1400 72.576 L1400 27.2059 M1400 9.54393 L1407.46 9.54393 L1407.46 18.9825 L1400 18.9825 L1400 9.54393 Z" fill="#000000" fill-rule="nonzero" fill-opacity="1"></path><path clip-path="url(#clip200)" d="M1452.91 49.3643 Q1452.91 41.2625 1449.55 36.8065 Q1446.22 32.3505 1440.19 32.3505 Q1434.19 32.3505 1430.83 36.8065 Q1427.51 41.2625 1427.51 49.3643 Q1427.51 57.4256 1430.83 61.8816 Q1434.19 66.3376 1440.19 66.3376 Q1446.22 66.3376 1449.55 61.8816 Q1452.91 57.4256 1452.91 49.3643 M1460.36 66.9452 Q1460.36 78.5308 1455.22 84.1616 Q1450.07 89.8329 1439.46 89.8329 Q1435.53 89.8329 1432.05 89.2252 Q1428.56 88.6581 1425.28 87.4428 L1425.28 80.1917 Q1428.56 81.9741 1431.76 82.8248 Q1434.96 83.6755 1438.28 83.6755 Q1445.62 83.6755 1449.26 79.8271 Q1452.91 76.0193 1452.91 68.282 L1452.91 64.5957 Q1450.6 68.6061 1446.99 70.5911 Q1443.39 72.576 1438.36 72.576 Q1430.02 72.576 1424.92 66.2161 Q1419.81 59.8562 1419.81 49.3643 Q1419.81 38.832 1424.92 32.472 Q1430.02 26.1121 1438.36 26.1121 Q1443.39 26.1121 1446.99 28.0971 Q1450.6 30.082 1452.91 34.0924 L1452.91 27.2059 L1460.36 27.2059 L1460.36 66.9452 Z" fill="#000000" fill-rule="nonzero" fill-opacity="1"></path><path clip-path="url(#clip200)" d="M1513.43 45.1919 L1513.43 72.576 L1505.97 72.576 L1505.97 45.4349 Q1505.97 38.994 1503.46 35.7938 Q1500.95 32.5936 1495.93 32.5936 Q1489.89 32.5936 1486.41 36.4419 Q1482.92 40.2903 1482.92 46.9338 L1482.92 72.576 L1475.43 72.576 L1475.43 27.2059 L1482.92 27.2059 L1482.92 34.2544 Q1485.6 30.163 1489.2 28.1376 Q1492.85 26.1121 1497.59 26.1121 Q1505.41 26.1121 1509.42 30.9732 Q1513.43 35.7938 1513.43 45.1919 Z" fill="#000000" fill-rule="nonzero" fill-opacity="1"></path><path clip-path="url(#clip200)" d="M1548.91 49.7694 Q1539.88 49.7694 1536.4 51.8354 Q1532.91 53.9013 1532.91 58.8839 Q1532.91 62.8538 1535.51 65.2034 Q1538.14 67.5124 1542.63 67.5124 Q1548.83 67.5124 1552.56 63.1374 Q1556.33 58.7219 1556.33 51.4303 L1556.33 49.7694 L1548.91 49.7694 M1563.78 46.6907 L1563.78 72.576 L1556.33 72.576 L1556.33 65.6895 Q1553.77 69.8214 1549.97 71.8063 Q1546.16 73.7508 1540.65 73.7508 Q1533.68 73.7508 1529.55 69.8619 Q1525.46 65.9325 1525.46 59.3701 Q1525.46 51.7138 1530.56 47.825 Q1535.71 43.9361 1545.88 43.9361 L1556.33 43.9361 L1556.33 43.2069 Q1556.33 38.0623 1552.92 35.2672 Q1549.56 32.4315 1543.45 32.4315 Q1539.56 32.4315 1535.87 33.3632 Q1532.18 34.295 1528.78 36.1584 L1528.78 29.2718 Q1532.87 27.692 1536.72 26.9223 Q1540.57 26.1121 1544.21 26.1121 Q1554.06 26.1121 1558.92 31.2163 Q1563.78 36.3204 1563.78 46.6907 Z" fill="#000000" fill-rule="nonzero" fill-opacity="1"></path><path clip-path="url(#clip200)" d="M1579.13 9.54393 L1586.59 9.54393 L1586.59 72.576 L1579.13 72.576 L1579.13 9.54393 Z" fill="#000000" fill-rule="nonzero" fill-opacity="1"></path><circle clip-path="url(#clip202)" cx="273.033" cy="773.326" r="14.4" fill="#009af9" fill-rule="evenodd" fill-opacity="1" stroke="#000000" stroke-opacity="1" stroke-width="3.2"></circle>
<circle clip-path="url(#clip202)" cx="313.416" cy="620.56" r="14.4" fill="#009af9" fill-rule="evenodd" fill-opacity="1" stroke="#000000" stroke-opacity="1" stroke-width="3.2"></circle>
<circle clip-path="url(#clip202)" cx="353.799" cy="477.393" r="14.4" fill="#009af9" fill-rule="evenodd" fill-opacity="1" stroke="#000000" stroke-opacity="1" stroke-width="3.2"></circle>
<circle clip-path="url(#clip202)" cx="394.182" cy="352.821" r="14.4" fill="#009af9" fill-rule="evenodd" fill-opacity="1" stroke="#000000" stroke-opacity="1" stroke-width="3.2"></circle>
<circle clip-path="url(#clip202)" cx="434.565" cy="254.671" r="14.4" fill="#009af9" fill-rule="evenodd" fill-opacity="1" stroke="#000000" stroke-opacity="1" stroke-width="3.2"></circle>
<circle clip-path="url(#clip202)" cx="474.948" cy="189.109" r="14.4" fill="#009af9" fill-rule="evenodd" fill-opacity="1" stroke="#000000" stroke-opacity="1" stroke-width="3.2"></circle>
<circle clip-path="url(#clip202)" cx="515.331" cy="160.256" r="14.4" fill="#009af9" fill-rule="evenodd" fill-opacity="1" stroke="#000000" stroke-opacity="1" stroke-width="3.2"></circle>
<circle clip-path="url(#clip202)" cx="555.714" cy="169.925" r="14.4" fill="#009af9" fill-rule="evenodd" fill-opacity="1" stroke="#000000" stroke-opacity="1" stroke-width="3.2"></circle>
<circle clip-path="url(#clip202)" cx="596.097" cy="217.507" r="14.4" fill="#009af9" fill-rule="evenodd" fill-opacity="1" stroke="#000000" stroke-opacity="1" stroke-width="3.2"></circle>
<circle clip-path="url(#clip202)" cx="636.48" cy="300.014" r="14.4" fill="#009af9" fill-rule="evenodd" fill-opacity="1" stroke="#000000" stroke-opacity="1" stroke-width="3.2"></circle>
<circle clip-path="url(#clip202)" cx="676.863" cy="412.26" r="14.4" fill="#009af9" fill-rule="evenodd" fill-opacity="1" stroke="#000000" stroke-opacity="1" stroke-width="3.2"></circle>
<circle clip-path="url(#clip202)" cx="717.246" cy="547.194" r="14.4" fill="#009af9" fill-rule="evenodd" fill-opacity="1" stroke="#000000" stroke-opacity="1" stroke-width="3.2"></circle>
<circle clip-path="url(#clip202)" cx="757.629" cy="696.336" r="14.4" fill="#009af9" fill-rule="evenodd" fill-opacity="1" stroke="#000000" stroke-opacity="1" stroke-width="3.2"></circle>
<circle clip-path="url(#clip202)" cx="798.012" cy="850.316" r="14.4" fill="#009af9" fill-rule="evenodd" fill-opacity="1" stroke="#000000" stroke-opacity="1" stroke-width="3.2"></circle>
<circle clip-path="url(#clip202)" cx="838.395" cy="999.458" r="14.4" fill="#009af9" fill-rule="evenodd" fill-opacity="1" stroke="#000000" stroke-opacity="1" stroke-width="3.2"></circle>
<circle clip-path="url(#clip202)" cx="878.778" cy="1134.39" r="14.4" fill="#009af9" fill-rule="evenodd" fill-opacity="1" stroke="#000000" stroke-opacity="1" stroke-width="3.2"></circle>
<circle clip-path="url(#clip202)" cx="919.161" cy="1246.64" r="14.4" fill="#009af9" fill-rule="evenodd" fill-opacity="1" stroke="#000000" stroke-opacity="1" stroke-width="3.2"></circle>
<circle clip-path="url(#clip202)" cx="959.544" cy="1329.14" r="14.4" fill="#009af9" fill-rule="evenodd" fill-opacity="1" stroke="#000000" stroke-opacity="1" stroke-width="3.2"></circle>
<circle clip-path="url(#clip202)" cx="999.927" cy="1376.73" r="14.4" fill="#009af9" fill-rule="evenodd" fill-opacity="1" stroke="#000000" stroke-opacity="1" stroke-width="3.2"></circle>
<circle clip-path="url(#clip202)" cx="1040.31" cy="1386.4" r="14.4" fill="#009af9" fill-rule="evenodd" fill-opacity="1" stroke="#000000" stroke-opacity="1" stroke-width="3.2"></circle>
<circle clip-path="url(#clip202)" cx="1080.69" cy="1357.54" r="14.4" fill="#009af9" fill-rule="evenodd" fill-opacity="1" stroke="#000000" stroke-opacity="1" stroke-width="3.2"></circle>
<circle clip-path="url(#clip202)" cx="1121.08" cy="1291.98" r="14.4" fill="#009af9" fill-rule="evenodd" fill-opacity="1" stroke="#000000" stroke-opacity="1" stroke-width="3.2"></circle>
<circle clip-path="url(#clip202)" cx="1161.46" cy="1193.83" r="14.4" fill="#009af9" fill-rule="evenodd" fill-opacity="1" stroke="#000000" stroke-opacity="1" stroke-width="3.2"></circle>
<circle clip-path="url(#clip202)" cx="1201.84" cy="1069.26" r="14.4" fill="#009af9" fill-rule="evenodd" fill-opacity="1" stroke="#000000" stroke-opacity="1" stroke-width="3.2"></circle>
<circle clip-path="url(#clip202)" cx="1242.22" cy="926.092" r="14.4" fill="#009af9" fill-rule="evenodd" fill-opacity="1" stroke="#000000" stroke-opacity="1" stroke-width="3.2"></circle>
<circle clip-path="url(#clip202)" cx="1282.61" cy="773.326" r="14.4" fill="#009af9" fill-rule="evenodd" fill-opacity="1" stroke="#000000" stroke-opacity="1" stroke-width="3.2"></circle>
<circle clip-path="url(#clip202)" cx="1322.99" cy="620.56" r="14.4" fill="#009af9" fill-rule="evenodd" fill-opacity="1" stroke="#000000" stroke-opacity="1" stroke-width="3.2"></circle>
<circle clip-path="url(#clip202)" cx="1363.37" cy="477.393" r="14.4" fill="#009af9" fill-rule="evenodd" fill-opacity="1" stroke="#000000" stroke-opacity="1" stroke-width="3.2"></circle>
<circle clip-path="url(#clip202)" cx="1403.76" cy="352.821" r="14.4" fill="#009af9" fill-rule="evenodd" fill-opacity="1" stroke="#000000" stroke-opacity="1" stroke-width="3.2"></circle>
<circle clip-path="url(#clip202)" cx="1444.14" cy="254.671" r="14.4" fill="#009af9" fill-rule="evenodd" fill-opacity="1" stroke="#000000" stroke-opacity="1" stroke-width="3.2"></circle>
<circle clip-path="url(#clip202)" cx="1484.52" cy="189.109" r="14.4" fill="#009af9" fill-rule="evenodd" fill-opacity="1" stroke="#000000" stroke-opacity="1" stroke-width="3.2"></circle>
<circle clip-path="url(#clip202)" cx="1524.91" cy="160.256" r="14.4" fill="#009af9" fill-rule="evenodd" fill-opacity="1" stroke="#000000" stroke-opacity="1" stroke-width="3.2"></circle>
<circle clip-path="url(#clip202)" cx="1565.29" cy="169.925" r="14.4" fill="#009af9" fill-rule="evenodd" fill-opacity="1" stroke="#000000" stroke-opacity="1" stroke-width="3.2"></circle>
<circle clip-path="url(#clip202)" cx="1605.67" cy="217.507" r="14.4" fill="#009af9" fill-rule="evenodd" fill-opacity="1" stroke="#000000" stroke-opacity="1" stroke-width="3.2"></circle>
<circle clip-path="url(#clip202)" cx="1646.05" cy="300.014" r="14.4" fill="#009af9" fill-rule="evenodd" fill-opacity="1" stroke="#000000" stroke-opacity="1" stroke-width="3.2"></circle>
<circle clip-path="url(#clip202)" cx="1686.44" cy="412.26" r="14.4" fill="#009af9" fill-rule="evenodd" fill-opacity="1" stroke="#000000" stroke-opacity="1" stroke-width="3.2"></circle>
<circle clip-path="url(#clip202)" cx="1726.82" cy="547.194" r="14.4" fill="#009af9" fill-rule="evenodd" fill-opacity="1" stroke="#000000" stroke-opacity="1" stroke-width="3.2"></circle>
<circle clip-path="url(#clip202)" cx="1767.2" cy="696.336" r="14.4" fill="#009af9" fill-rule="evenodd" fill-opacity="1" stroke="#000000" stroke-opacity="1" stroke-width="3.2"></circle>
<circle clip-path="url(#clip202)" cx="1807.59" cy="850.316" r="14.4" fill="#009af9" fill-rule="evenodd" fill-opacity="1" stroke="#000000" stroke-opacity="1" stroke-width="3.2"></circle>
<circle clip-path="url(#clip202)" cx="1847.97" cy="999.458" r="14.4" fill="#009af9" fill-rule="evenodd" fill-opacity="1" stroke="#000000" stroke-opacity="1" stroke-width="3.2"></circle>
<circle clip-path="url(#clip202)" cx="1888.35" cy="1134.39" r="14.4" fill="#009af9" fill-rule="evenodd" fill-opacity="1" stroke="#000000" stroke-opacity="1" stroke-width="3.2"></circle>
<circle clip-path="url(#clip202)" cx="1928.73" cy="1246.64" r="14.4" fill="#009af9" fill-rule="evenodd" fill-opacity="1" stroke="#000000" stroke-opacity="1" stroke-width="3.2"></circle>
<circle clip-path="url(#clip202)" cx="1969.12" cy="1329.14" r="14.4" fill="#009af9" fill-rule="evenodd" fill-opacity="1" stroke="#000000" stroke-opacity="1" stroke-width="3.2"></circle>
<circle clip-path="url(#clip202)" cx="2009.5" cy="1376.73" r="14.4" fill="#009af9" fill-rule="evenodd" fill-opacity="1" stroke="#000000" stroke-opacity="1" stroke-width="3.2"></circle>
<circle clip-path="url(#clip202)" cx="2049.88" cy="1386.4" r="14.4" fill="#009af9" fill-rule="evenodd" fill-opacity="1" stroke="#000000" stroke-opacity="1" stroke-width="3.2"></circle>
<circle clip-path="url(#clip202)" cx="2090.27" cy="1357.54" r="14.4" fill="#009af9" fill-rule="evenodd" fill-opacity="1" stroke="#000000" stroke-opacity="1" stroke-width="3.2"></circle>
<circle clip-path="url(#clip202)" cx="2130.65" cy="1291.98" r="14.4" fill="#009af9" fill-rule="evenodd" fill-opacity="1" stroke="#000000" stroke-opacity="1" stroke-width="3.2"></circle>
<circle clip-path="url(#clip202)" cx="2171.03" cy="1193.83" r="14.4" fill="#009af9" fill-rule="evenodd" fill-opacity="1" stroke="#000000" stroke-opacity="1" stroke-width="3.2"></circle>
<circle clip-path="url(#clip202)" cx="2211.42" cy="1069.26" r="14.4" fill="#009af9" fill-rule="evenodd" fill-opacity="1" stroke="#000000" stroke-opacity="1" stroke-width="3.2"></circle>
<circle clip-path="url(#clip202)" cx="2251.8" cy="926.092" r="14.4" fill="#009af9" fill-rule="evenodd" fill-opacity="1" stroke="#000000" stroke-opacity="1" stroke-width="3.2"></circle>
<circle clip-path="url(#clip202)" cx="2292.18" cy="773.326" r="14.4" fill="#009af9" fill-rule="evenodd" fill-opacity="1" stroke="#000000" stroke-opacity="1" stroke-width="3.2"></circle>
<polyline clip-path="url(#clip202)" style="stroke:#009af9; stroke-linecap:round; stroke-linejoin:round; stroke-width:4; stroke-opacity:1; fill:none" points="273.033,773.326 273.033,773.326 "></polyline>
<polyline clip-path="url(#clip202)" style="stroke:#009af9; stroke-linecap:round; stroke-linejoin:round; stroke-width:4; stroke-opacity:1; fill:none" points="313.416,773.326 313.416,620.56 "></polyline>
<polyline clip-path="url(#clip202)" style="stroke:#009af9; stroke-linecap:round; stroke-linejoin:round; stroke-width:4; stroke-opacity:1; fill:none" points="353.799,773.326 353.799,477.393 "></polyline>
<polyline clip-path="url(#clip202)" style="stroke:#009af9; stroke-linecap:round; stroke-linejoin:round; stroke-width:4; stroke-opacity:1; fill:none" points="394.182,773.326 394.182,352.821 "></polyline>
<polyline clip-path="url(#clip202)" style="stroke:#009af9; stroke-linecap:round; stroke-linejoin:round; stroke-width:4; stroke-opacity:1; fill:none" points="434.565,773.326 434.565,254.671 "></polyline>
<polyline clip-path="url(#clip202)" style="stroke:#009af9; stroke-linecap:round; stroke-linejoin:round; stroke-width:4; stroke-opacity:1; fill:none" points="474.948,773.326 474.948,189.109 "></polyline>
<polyline clip-path="url(#clip202)" style="stroke:#009af9; stroke-linecap:round; stroke-linejoin:round; stroke-width:4; stroke-opacity:1; fill:none" points="515.331,773.326 515.331,160.256 "></polyline>
<polyline clip-path="url(#clip202)" style="stroke:#009af9; stroke-linecap:round; stroke-linejoin:round; stroke-width:4; stroke-opacity:1; fill:none" points="555.714,773.326 555.714,169.925 "></polyline>
<polyline clip-path="url(#clip202)" style="stroke:#009af9; stroke-linecap:round; stroke-linejoin:round; stroke-width:4; stroke-opacity:1; fill:none" points="596.097,773.326 596.097,217.507 "></polyline>
<polyline clip-path="url(#clip202)" style="stroke:#009af9; stroke-linecap:round; stroke-linejoin:round; stroke-width:4; stroke-opacity:1; fill:none" points="636.48,773.326 636.48,300.014 "></polyline>
<polyline clip-path="url(#clip202)" style="stroke:#009af9; stroke-linecap:round; stroke-linejoin:round; stroke-width:4; stroke-opacity:1; fill:none" points="676.863,773.326 676.863,412.26 "></polyline>
<polyline clip-path="url(#clip202)" style="stroke:#009af9; stroke-linecap:round; stroke-linejoin:round; stroke-width:4; stroke-opacity:1; fill:none" points="717.246,773.326 717.246,547.194 "></polyline>
<polyline clip-path="url(#clip202)" style="stroke:#009af9; stroke-linecap:round; stroke-linejoin:round; stroke-width:4; stroke-opacity:1; fill:none" points="757.629,773.326 757.629,696.336 "></polyline>
<polyline clip-path="url(#clip202)" style="stroke:#009af9; stroke-linecap:round; stroke-linejoin:round; stroke-width:4; stroke-opacity:1; fill:none" points="798.012,773.326 798.012,850.316 "></polyline>
<polyline clip-path="url(#clip202)" style="stroke:#009af9; stroke-linecap:round; stroke-linejoin:round; stroke-width:4; stroke-opacity:1; fill:none" points="838.395,773.326 838.395,999.458 "></polyline>
<polyline clip-path="url(#clip202)" style="stroke:#009af9; stroke-linecap:round; stroke-linejoin:round; stroke-width:4; stroke-opacity:1; fill:none" points="878.778,773.326 878.778,1134.39 "></polyline>
<polyline clip-path="url(#clip202)" style="stroke:#009af9; stroke-linecap:round; stroke-linejoin:round; stroke-width:4; stroke-opacity:1; fill:none" points="919.161,773.326 919.161,1246.64 "></polyline>
<polyline clip-path="url(#clip202)" style="stroke:#009af9; stroke-linecap:round; stroke-linejoin:round; stroke-width:4; stroke-opacity:1; fill:none" points="959.544,773.326 959.544,1329.14 "></polyline>
<polyline clip-path="url(#clip202)" style="stroke:#009af9; stroke-linecap:round; stroke-linejoin:round; stroke-width:4; stroke-opacity:1; fill:none" points="999.927,773.326 999.927,1376.73 "></polyline>
<polyline clip-path="url(#clip202)" style="stroke:#009af9; stroke-linecap:round; stroke-linejoin:round; stroke-width:4; stroke-opacity:1; fill:none" points="1040.31,773.326 1040.31,1386.4 "></polyline>
<polyline clip-path="url(#clip202)" style="stroke:#009af9; stroke-linecap:round; stroke-linejoin:round; stroke-width:4; stroke-opacity:1; fill:none" points="1080.69,773.326 1080.69,1357.54 "></polyline>
<polyline clip-path="url(#clip202)" style="stroke:#009af9; stroke-linecap:round; stroke-linejoin:round; stroke-width:4; stroke-opacity:1; fill:none" points="1121.08,773.326 1121.08,1291.98 "></polyline>
<polyline clip-path="url(#clip202)" style="stroke:#009af9; stroke-linecap:round; stroke-linejoin:round; stroke-width:4; stroke-opacity:1; fill:none" points="1161.46,773.326 1161.46,1193.83 "></polyline>
<polyline clip-path="url(#clip202)" style="stroke:#009af9; stroke-linecap:round; stroke-linejoin:round; stroke-width:4; stroke-opacity:1; fill:none" points="1201.84,773.326 1201.84,1069.26 "></polyline>
<polyline clip-path="url(#clip202)" style="stroke:#009af9; stroke-linecap:round; stroke-linejoin:round; stroke-width:4; stroke-opacity:1; fill:none" points="1242.22,773.326 1242.22,926.092 "></polyline>
<polyline clip-path="url(#clip202)" style="stroke:#009af9; stroke-linecap:round; stroke-linejoin:round; stroke-width:4; stroke-opacity:1; fill:none" points="1282.61,773.326 1282.61,773.326 "></polyline>
<polyline clip-path="url(#clip202)" style="stroke:#009af9; stroke-linecap:round; stroke-linejoin:round; stroke-width:4; stroke-opacity:1; fill:none" points="1322.99,773.326 1322.99,620.56 "></polyline>
<polyline clip-path="url(#clip202)" style="stroke:#009af9; stroke-linecap:round; stroke-linejoin:round; stroke-width:4; stroke-opacity:1; fill:none" points="1363.37,773.326 1363.37,477.393 "></polyline>
<polyline clip-path="url(#clip202)" style="stroke:#009af9; stroke-linecap:round; stroke-linejoin:round; stroke-width:4; stroke-opacity:1; fill:none" points="1403.76,773.326 1403.76,352.821 "></polyline>
<polyline clip-path="url(#clip202)" style="stroke:#009af9; stroke-linecap:round; stroke-linejoin:round; stroke-width:4; stroke-opacity:1; fill:none" points="1444.14,773.326 1444.14,254.671 "></polyline>
<polyline clip-path="url(#clip202)" style="stroke:#009af9; stroke-linecap:round; stroke-linejoin:round; stroke-width:4; stroke-opacity:1; fill:none" points="1484.52,773.326 1484.52,189.109 "></polyline>
<polyline clip-path="url(#clip202)" style="stroke:#009af9; stroke-linecap:round; stroke-linejoin:round; stroke-width:4; stroke-opacity:1; fill:none" points="1524.91,773.326 1524.91,160.256 "></polyline>
<polyline clip-path="url(#clip202)" style="stroke:#009af9; stroke-linecap:round; stroke-linejoin:round; stroke-width:4; stroke-opacity:1; fill:none" points="1565.29,773.326 1565.29,169.925 "></polyline>
<polyline clip-path="url(#clip202)" style="stroke:#009af9; stroke-linecap:round; stroke-linejoin:round; stroke-width:4; stroke-opacity:1; fill:none" points="1605.67,773.326 1605.67,217.507 "></polyline>
<polyline clip-path="url(#clip202)" style="stroke:#009af9; stroke-linecap:round; stroke-linejoin:round; stroke-width:4; stroke-opacity:1; fill:none" points="1646.05,773.326 1646.05,300.014 "></polyline>
<polyline clip-path="url(#clip202)" style="stroke:#009af9; stroke-linecap:round; stroke-linejoin:round; stroke-width:4; stroke-opacity:1; fill:none" points="1686.44,773.326 1686.44,412.26 "></polyline>
<polyline clip-path="url(#clip202)" style="stroke:#009af9; stroke-linecap:round; stroke-linejoin:round; stroke-width:4; stroke-opacity:1; fill:none" points="1726.82,773.326 1726.82,547.194 "></polyline>
<polyline clip-path="url(#clip202)" style="stroke:#009af9; stroke-linecap:round; stroke-linejoin:round; stroke-width:4; stroke-opacity:1; fill:none" points="1767.2,773.326 1767.2,696.336 "></polyline>
<polyline clip-path="url(#clip202)" style="stroke:#009af9; stroke-linecap:round; stroke-linejoin:round; stroke-width:4; stroke-opacity:1; fill:none" points="1807.59,773.326 1807.59,850.316 "></polyline>
<polyline clip-path="url(#clip202)" style="stroke:#009af9; stroke-linecap:round; stroke-linejoin:round; stroke-width:4; stroke-opacity:1; fill:none" points="1847.97,773.326 1847.97,999.458 "></polyline>
<polyline clip-path="url(#clip202)" style="stroke:#009af9; stroke-linecap:round; stroke-linejoin:round; stroke-width:4; stroke-opacity:1; fill:none" points="1888.35,773.326 1888.35,1134.39 "></polyline>
<polyline clip-path="url(#clip202)" style="stroke:#009af9; stroke-linecap:round; stroke-linejoin:round; stroke-width:4; stroke-opacity:1; fill:none" points="1928.73,773.326 1928.73,1246.64 "></polyline>
<polyline clip-path="url(#clip202)" style="stroke:#009af9; stroke-linecap:round; stroke-linejoin:round; stroke-width:4; stroke-opacity:1; fill:none" points="1969.12,773.326 1969.12,1329.14 "></polyline>
<polyline clip-path="url(#clip202)" style="stroke:#009af9; stroke-linecap:round; stroke-linejoin:round; stroke-width:4; stroke-opacity:1; fill:none" points="2009.5,773.326 2009.5,1376.73 "></polyline>
<polyline clip-path="url(#clip202)" style="stroke:#009af9; stroke-linecap:round; stroke-linejoin:round; stroke-width:4; stroke-opacity:1; fill:none" points="2049.88,773.326 2049.88,1386.4 "></polyline>
<polyline clip-path="url(#clip202)" style="stroke:#009af9; stroke-linecap:round; stroke-linejoin:round; stroke-width:4; stroke-opacity:1; fill:none" points="2090.27,773.326 2090.27,1357.54 "></polyline>
<polyline clip-path="url(#clip202)" style="stroke:#009af9; stroke-linecap:round; stroke-linejoin:round; stroke-width:4; stroke-opacity:1; fill:none" points="2130.65,773.326 2130.65,1291.98 "></polyline>
<polyline clip-path="url(#clip202)" style="stroke:#009af9; stroke-linecap:round; stroke-linejoin:round; stroke-width:4; stroke-opacity:1; fill:none" points="2171.03,773.326 2171.03,1193.83 "></polyline>
<polyline clip-path="url(#clip202)" style="stroke:#009af9; stroke-linecap:round; stroke-linejoin:round; stroke-width:4; stroke-opacity:1; fill:none" points="2211.42,773.326 2211.42,1069.26 "></polyline>
<polyline clip-path="url(#clip202)" style="stroke:#009af9; stroke-linecap:round; stroke-linejoin:round; stroke-width:4; stroke-opacity:1; fill:none" points="2251.8,773.326 2251.8,926.092 "></polyline>
<polyline clip-path="url(#clip202)" style="stroke:#009af9; stroke-linecap:round; stroke-linejoin:round; stroke-width:4; stroke-opacity:1; fill:none" points="2292.18,773.326 2292.18,773.326 "></polyline>
<path clip-path="url(#clip200)" d="M2014.95 270.476 L2281.41 270.476 L2281.41 166.796 L2014.95 166.796  Z" fill="#ffffff" fill-rule="evenodd" fill-opacity="1"></path>
<polyline clip-path="url(#clip200)" style="stroke:#000000; stroke-linecap:round; stroke-linejoin:round; stroke-width:4; stroke-opacity:1; fill:none" points="2014.95,270.476 2281.41,270.476 2281.41,166.796 2014.95,166.796 2014.95,270.476 "></polyline>
<circle clip-path="url(#clip200)" cx="2110.08" cy="218.636" r="20.48" fill="#009af9" fill-rule="evenodd" fill-opacity="1" stroke="#000000" stroke-opacity="1" stroke-width="4.55111"></circle>
<path clip-path="url(#clip200)" d="M2219.04 238.323 Q2217.24 242.953 2215.53 244.365 Q2213.81 245.777 2210.94 245.777 L2207.54 245.777 L2207.54 242.212 L2210.04 242.212 Q2211.8 242.212 2212.77 241.379 Q2213.74 240.545 2214.92 237.443 L2215.69 235.499 L2205.2 209.99 L2209.72 209.99 L2217.82 230.268 L2225.92 209.99 L2230.43 209.99 L2219.04 238.323 Z" fill="#000000" fill-rule="nonzero" fill-opacity="1"></path><path clip-path="url(#clip200)" d="M2237.72 231.981 L2245.36 231.981 L2245.36 205.615 L2237.05 207.282 L2237.05 203.022 L2245.32 201.356 L2249.99 201.356 L2249.99 231.981 L2257.63 231.981 L2257.63 235.916 L2237.72 235.916 L2237.72 231.981 Z" fill="#000000" fill-rule="nonzero" fill-opacity="1"></path></svg>